<svg xmlns="http://www.w3.org/2000/svg" height="800" width="1200" version="1.0" viewBox="-35.92941 -13.067825 311.38822 78.40695"><defs><linearGradient spreadMethod="pad" gradientTransform="matrix(0 -44.88966 -44.88966 0 64.3196 85.382)" gradientUnits="userSpaceOnUse" id="a" y2="0" x2="1" y1="0" x1="0"><stop offset="0" stop-color="#007348"/><stop offset=".6" stop-color="#8dc9ab"/><stop offset="1" stop-color="#00925b"/></linearGradient><linearGradient spreadMethod="pad" gradientTransform="matrix(0 -50.44363 -50.44363 0 64.2527 94.8995)" gradientUnits="userSpaceOnUse" id="b" y2="0" x2="1" y1="0" x1="0"><stop offset="0" stop-color="#00925b"/><stop offset=".3" stop-color="#8dc9ab"/><stop offset=".55" stop-color="#00925b"/><stop offset=".8352" stop-color="#007348"/><stop offset="1" stop-color="#009c6d"/></linearGradient><linearGradient spreadMethod="pad" gradientTransform="matrix(0 32.643 32.643 0 72.3327 47.2416)" gradientUnits="userSpaceOnUse" id="c" y2="0" x2="1" y1="0" x1="0"><stop offset="0" stop-color="#00a678"/><stop offset="1" stop-color="#00925b"/></linearGradient><linearGradient spreadMethod="pad" gradientTransform="matrix(0 32.65286 32.65286 0 52.0795 47.2398)" gradientUnits="userSpaceOnUse" id="d" y2="0" x2="1" y1="0" x1="0"><stop offset="0" stop-color="#00a678"/><stop offset="1" stop-color="#00925b"/></linearGradient><linearGradient spreadMethod="pad" gradientTransform="matrix(0 32.6314 32.6314 0 58.3886 47.2471)" gradientUnits="userSpaceOnUse" id="e" y2="0" x2="1" y1="0" x1="0"><stop offset="0" stop-color="#00a678"/><stop offset="1" stop-color="#00925b"/></linearGradient><linearGradient spreadMethod="pad" gradientTransform="matrix(0 32.64264 32.64264 0 63.8435 47.2425)" gradientUnits="userSpaceOnUse" id="f" y2="0" x2="1" y1="0" x1="0"><stop offset="0" stop-color="#00a678"/><stop offset="1" stop-color="#00925b"/></linearGradient><clipPath id="g"><path d="M0 42.52h623.622v42.52H0z"/></clipPath><clipPath id="h"><path d="M0 42.52h623.622v42.52H0z"/></clipPath></defs><path d="M43.058 42.52h42.524v41.817H43.058z" fill="url(#a)" transform="matrix(1.25 0 0 -1.25 -53.8225 105.4212)"/><path d="M46.38 83.588c-.825 0-1.364-.696-1.492-1.672 0 0-1.062-5.582-1.062-17.435 0-11.859 1.062-19.618 1.062-19.618.098-.938.667-1.671 1.492-1.671h36.807c.822 0 1.476.652 1.49 1.671 0 0-.409 9.088-.409 17.964 0 8.877.409 19.089.409 19.089.02.908-.668 1.672-1.49 1.672z" fill="url(#b)" transform="matrix(1.25 0 0 -1.25 -53.8225 105.4212)"/><path d="M67.051 79.322c1.161-.487 5.827-3.01 6.399-3.816-2.348-.31-6.953-1.509-9.433-2.716l-.145-.292c2.735.602 6.558.917 9.194 1.06-.984-1.444-1.636-2.132-3.133-3.766l-.139-.317c2.853 1.714 3.656 1.837 6.286 3.377.993-1.469 1.232-4.854 1.27-7.537.856 1.702 1.895 8.114 1.463 9.273 1.744 1.197 1.98 2.161 1.98 2.161-1.599-.138-2.481-.165-3.343-.437-2.043 1.253-6.728 2.906-10.264 3.306z" fill="url(#c)" transform="matrix(1.25 0 0 -1.25 -53.8225 105.4212)"/><path d="M49.631 59.396c-.231-2.136-.324-3.664-.018-5.373-.865-.239-1.623-.273-2.32-.57l-.133-.293c1.109-.684 2.012-1.208 3.266-1.793.671-1.441 1.364-2.413 2.488-3.523l.137.297c-.202.819-.464 1.496-.365 2.391 1.394-.406 2.59-.621 4.179-.669l.134.297c-1.397.542-2.793.969-3.923 2.035.355.988.762 1.763 1.426 2.743l.14.3c-1.2-.181-2.288-.62-3.326-.822-.818 1.438-1.136 3.405-1.548 5.279z" fill="url(#d)" transform="matrix(1.25 0 0 -1.25 -53.8225 105.4212)"/><path d="M56.751 69.145s-.898.086-2.384.041c-1.256-.058-3.129-.17-4.04-.438l-.133-.292c1.448-.062 3.432-.451 4.191-1.213 0 0-2.198-1.983-4.377-6.323 0 0 3.95 3.706 5.662 4.625 0 0 .896-2.984 1.518-4.478l.137.298c.172.96.601 3.564 1.329 5.157 0 0 .258.157 1.521.28 1.266.113 3.056.18 6.455-.417l.138.292c-.776.458-3.869 1.784-7.143 2.225h.107c.449 1.322 1.011 2.319 1.011 2.319-.694-.098-2.67-1.022-3.992-2.076" fill="url(#e)" transform="matrix(1.25 0 0 -1.25 -53.8225 105.4212)"/><path d="M65.025 50.836c-.049.579-.086 1.072-.115 1.724-.687-.932-1.274-1.665-2.032-2.516-.801-.223-1.717-.214-2.552-.205-.33.004-.649.007-.942-.002l-.135-.297c.777-.4 1.54-.646 2.354-.813-.66-.601-1.542-1.058-2.162-1.477l-.136-.292c1.328.314 3.077.878 4.38 1.647.678-.03 1.311.015 1.776.107 0 0 .139.303.139.296-.085.3-.352.483-.43.903 1.221.948 2.106 1.812 3.127 2.839l.142.298c-1.009-.696-2.234-1.653-3.414-2.212" fill="url(#f)" transform="matrix(1.25 0 0 -1.25 -53.8225 105.4212)"/><g clip-path="url(#g)" transform="matrix(1.25 0 0 -1.25 -53.8225 105.4212)"><path d="M76.215 73.152c-2.624-1.543-3.428-1.673-6.282-3.381 1.662 1.803 2.24 2.571 3.268 4.08-2.631-.14-6.454-.456-9.184-1.061 2.376 1.269 7.087 2.68 9.574 3.016-.577.796-5.244 3.324-6.405 3.811 3.695-.287 8.211-1.668 10.401-3.007.861.269 1.757.282 3.36.425-.408-.701-.426-1.107-1.999-2.15.436-1.165-.605-7.574-1.465-9.271-.031 2.681-.265 6.067-1.268 7.538M56.9987 50.1597c-1.508.559-2.594 1.21-3.79 2.328.358.988.767 1.76 1.433 2.75-1.226-.183-2.13-.321-3.186-.521-.86 1.504-1.25 2.957-1.688 4.978-.234-2.142-.323-3.672-.021-5.377-.969-.269-1.656-.505-2.454-.864 1.118-.684 2.021-1.211 3.269-1.793.671-1.439 1.364-2.411 2.49-3.52-.264.945-.334 1.696-.226 2.687 1.395-.406 2.589-.619 4.173-.668m3.9262 21.3158c-.47-.61-1.015-1.747-1.162-2.275 3.887-.527 7.006-2.523 7.006-2.523-3.399.603-5.19.528-6.458.414-1.26-.119-1.519-.267-1.519-.267-.917-2.009-1.467-5.459-1.467-5.459-.618 1.491-1.512 4.477-1.512 4.477-1.715-.917-5.659-4.628-5.659-4.628 2.168 4.344 4.369 6.32 4.369 6.32-.757.767-2.743 1.15-4.196 1.214.754.308 2.689.668 4.175.736 1.488.043 2.388-.042 2.388-.042 1.327 1.048 3.341 1.93 4.035 2.033m4.123-18.6229c-.686-.931-1.276-1.662-2.037-2.513-1.308-.367-2.352-.503-3.627-.503.783-.404 1.541-.646 2.358-.817-.817-.739-1.507-1.265-2.3-1.77 1.329.315 3.076.879 4.377 1.648.68-.026 1.315.018 1.781.11-.122.394-.196.688-.295 1.201 1.225.948 2.114 1.807 3.134 2.839-1.085-.757-2.021-1.322-3.277-1.915-.054.578-.085 1.068-.114 1.72" fill="#fff"/></g><g clip-path="url(#h)" transform="matrix(1.25 0 0 -1.25 -53.8225 105.4212)"><path d="M101.0941 68.3088c2.603-.022 3.556-.551 3.556-1.968 0-.391-.12-.738-.35-1.003-.499-.599-1.47-.91-2.708-.832h-.064l-.727-1.894h.727c1.437.041 2.686-.412 3.328-1.196.296-.357.445-.787.445-1.225 0-1.482-1.305-2.247-3.879-2.247-.433 0-1.138 0-1.576.014-.074 1.978-.107 4.654-.107 5.461 0 .933.061 3.013.107 4.79.297.061.79.1 1.248.1m-4.821 1.362c.08-1.405.162-4.957.162-6.252 0-1.194-.001-5.19-.21-6.913l-.013-.135h6.243c3.069 0 6.314.954 6.314 3.68 0 1.705-1.235 2.966-3.545 3.656 1.714.46 2.855 1.631 2.855 2.97 0 2.225-2.555 3.062-4.957 3.12h-6.885zm26.9052.1264h-3.038l.123-3.386c.059-1.673.116-3.394.234-5.065-.196.524-.379.793-1.303 2.137-.003.047-3.161 4.904-4.257 6.283l-.031.031h-3.525v-.126c.112-1.405.157-4.958.157-6.253 0-1.194 0-5.189-.168-6.912l-.031-.136h3.142v.136c-.179 3.277-.179 6.584-.179 9.792.109-.389.248-.723.743-1.456.041-.087 5.452-7.964 5.715-8.415l.027-.057h2.517l-.004.136c-.192 1.723-.208 5.718-.208 6.912 0 1.295.086 4.848.168 6.253l.04.126zm8.2396-1.6203c1.751.032 2.973-.322 3.554-1.057.266-.316.413-.733.413-1.211 0-1.943-2.186-2.365-4.013-2.365l-.742.042s-.175.017-.305.031c-.013.449-.013 1.041-.013 1.705 0 .845 0 1.848.039 2.777.258.034.647.078 1.067.078m-4.607 1.494c.123-1.405.17-4.957.17-6.253 0-1.193 0-5.189-.184-6.912v-.136h3.737l-.016.136c-.128 1.24-.193 3.604-.206 5.411l.706-.036.528-.011c4.916 0 7.307 1.301 7.307 4.039 0 3.115-3.354 3.83-6.15 3.888h-5.892zm23.7762-1.494c1.755.032 2.976-.322 3.564-1.057.27-.316.405-.733.405-1.211 0-1.943-2.183-2.365-3.987-2.365l-.74.042s-.196.017-.311.031c-.02.449-.02 1.044-.02 1.705 0 .853 0 1.848.035 2.777.234.034.638.078 1.054.078m-4.6 1.494c.118-1.405.186-4.957.186-6.253 0-1.193-.012-5.189-.206-6.912v-.136h3.74l-.022.136c-.119 1.24-.187 3.604-.187 5.411.174-.009.673-.036.673-.036l.542-.011c4.914 0 7.326 1.301 7.326 4.039 0 3.115-3.373 3.83-6.18 3.888h-5.872zm17.9599-3.8279c.297-.64 1.069-2.425 1.937-4.555-.134-.006-.302-.006-.302-.006l-1.635-.022s-1.692.022-1.975.028c.706 1.703 1.405 3.242 1.975 4.555m-.909 3.954h-.049l-.026-.067c-.696-1.911-5.179-11.694-5.889-13.192l-.059-.168h3.183l.027.074c.28.921.657 1.959 1.067 3.067.127 0 2.655.038 2.655.038l2.199-.016s.354-.022.46-.022c.566-1.443 1.001-2.531 1.19-3.084l.036-.057h3.689l-5.959 13.427h-.074zm9.9822-.1258c.107-1.405.161-4.958.161-6.253 0-1.194 0-5.189-.204-6.912v-.136h3.76l-.016.136c-.199 1.735-.213 5.718-.213 6.912 0 .933.029 3.013.122 4.695.286.02.72.064 1.014.064 1.74.032 2.969-.327 3.544-1.057.276-.317.4-.743.4-1.211 0-1.551-1.447-2.337-2.796-2.407-.452-.019-.788.039-.788.039l-.262.045.144-.246c1.335-1.947 3.331-5.318 4.156-6.913l.023-.057h4.017l-.1.181c-.164.226-2.78 4.077-3.892 5.722 0 0-.048.047-.097.099 2.06.619 3.055 1.77 3.055 3.537 0 3.092-3.354 3.828-6.186 3.888h-5.853zm18.3779.126h-3.581l.02-.126c.093-1.405.165-4.958.165-6.253 0-1.188-.016-5.177-.185-6.912l-.014-.136h3.712l-.019.136c-.143 1.735-.187 5.724-.187 6.912 0 1.295.089 4.848.187 6.253v.126zm8.3202-1.4884c2.622-.022 3.576-.551 3.576-1.968 0-.391-.121-.738-.359-1.003-.473-.599-1.482-.91-2.712-.832h-.061l-.722-1.894h.722c1.442.041 2.68-.412 3.321-1.196.313-.357.462-.787.462-1.225 0-1.482-1.311-2.247-3.899-2.247-.415 0-1.115 0-1.553.014-.107 1.978-.107 4.654-.107 5.461 0 .933.033 3.013.107 4.79.283.061.774.1 1.225.1m-4.819 1.362c.107-1.405.172-4.957.172-6.252 0-1.194 0-5.19-.188-6.913l-.03-.135h6.253c3.057 0 6.313.954 6.313 3.68 0 1.705-1.238 2.966-3.568 3.656 1.717.46 2.872 1.631 2.872 2.97 0 2.225-2.56 3.062-4.94 3.12h-6.9zm20.1685-3.8205c.301-.625 1.067-2.413 1.936-4.548-.132 0-.294-.014-.294-.014l-1.642-.022s-1.712.036-1.966.036c.696 1.715 1.377 3.243 1.966 4.548m1.545 3.947h-2.514l-.015-.06c-.751-2.033-5.487-12.332-5.885-13.186l-.069-.181h3.199l.02.08c.267.92.639 1.953 1.055 3.083.102 0 2.644.04 2.644.04l2.203-.035s.383-.005.468-.005c.578-1.443 1.007-2.54 1.194-3.083l.034-.08h3.702l-5.955 13.427zm7.0837-3.4722c0-2.359 2.363-3.308 4.455-4.176 1.629-.649 3.333-1.332 3.333-2.457 0-.34-.067-.626-.257-.827-.392-.462-1.185-.656-2.444-.586-1.247.05-2.653.443-4.235 1.172l-.619.298v-2.925l.422-.108.246-.042c.781-.194 2.29-.549 3.788-.549 3.943 0 6.296 1.573 6.296 4.173 0 2.442-2.429 3.391-4.576 4.247-1.581.641-3.218 1.276-3.218 2.323 0 .302 0 1.183 2.043 1.183 1.505 0 2.968-.613 3.799-.931l.758-.317-.005.504v2.432l-.753.136c-.766.155-2.044.409-3.36.409-3.402 0-5.673-1.606-5.673-3.959"/></g></svg>